<?xml version="1.0" encoding="utf-8"?>
<!-- Generator: Adobe Illustrator 22.1.0, SVG Export Plug-In . SVG Version: 6.00 Build 0)  -->
<svg version="1.1" id="Layer_1" xmlns="http://www.w3.org/2000/svg" xmlns:xlink="http://www.w3.org/1999/xlink" x="0px" y="0px"
	 viewBox="0 0 473 308" style="enable-background:new 0 0 473 308;" xml:space="preserve">
<style type="text/css">
	.st0{fill:#C7932C;}
	.st1{fill:#50082A;}
	.st2{fill:#A8C96F;}
	.st3{fill:#0E5365;}
	.st4{fill:#FFFFFF;}
	.st5{fill:#494941;}
	.st6{fill:#949597;}
</style>
<g>
	<rect x="5.2" y="10.3" class="st0" width="108.2" height="108.2"/>
	<rect x="117.3" y="10.3" class="st1" width="108.2" height="108.2"/>
</g>
<rect x="117.3" y="122.3" class="st2" width="108.2" height="108.2"/>
<rect x="5.2" y="122.3" class="st3" width="108.2" height="108.2"/>
<path class="st4" d="M114.9,16.8c47.8,0,87.1,30.6,87.1,81.3c0,50.6-39.3,81.3-87.1,81.3s-87.1-30.6-87.1-81.3
	C27.8,47.4,67.1,16.8,114.9,16.8L114.9,16.8z M218.3,187.7L218.3,187.7C200.9,210.6,191,224,160.1,224c-34.9,0-59.4-33.9-94.4-33.9
	c-7.5,0-14.8,2.8-21.4,6.4l-3.3-3.8c10.8-6.8,20.7-9.7,33.4-9.7c34.6,0,70.4,24.5,97.5,24.5c20.2,0,30.1-8.5,42.4-23.6L218.3,187.7
	L218.3,187.7z M114.9,170.8L114.9,170.8c39.1,0,62.2-34.4,62.2-72.8S154,25.2,114.9,25.2S52.7,59.6,52.7,98S75.8,170.8,114.9,170.8z
	"/>
<path class="st5" d="M317.4,108.9l11.6,14.7h-9.7l-8-10.1c-6.3,3.9-13.5,5.8-21.5,5.8c-11.6,0-21.4-4-29.4-11.9s-12-17.5-12-28.8
	c0-7.5,1.8-14.5,5.5-20.9c3.6-6.4,8.6-11.4,14.9-15.1c6.3-3.6,13.2-5.4,20.7-5.4c11.6,0,21.4,4,29.3,11.9c8,7.9,11.9,17.6,11.9,29.2
	c0,6-1.1,11.5-3.3,16.5C325.5,99.9,322.1,104.5,317.4,108.9L317.4,108.9z M312.6,102.8c6.8-6.7,10.2-14.8,10.2-24.5
	c0-6.2-1.5-11.8-4.3-16.8c-2.9-5-7-9-12.2-12c-5.3-3-10.8-4.5-16.6-4.5c-5.9,0-11.4,1.5-16.6,4.5s-9.2,7.1-12.2,12.2
	c-2.9,5.1-4.4,10.8-4.4,17.1c0,9.3,3.2,17.1,9.6,23.5s14.2,9.6,23.3,9.6c6.2,0,11.9-1.5,16.9-4.4l-17.6-22.2h9.7L312.6,102.8z"/>
<polygon class="st5" points="344.1,39.3 388.9,39.3 388.9,46.9 352,46.9 352,71.4 388.5,71.4 388.5,79 352,79 352,109.8 
	388.5,109.8 388.5,117.4 344.1,117.4 "/>
<path class="st5" d="M403,117.4V39.3h16.2c11.7,0,20.2,0.9,25.4,2.8c7.6,2.7,13.5,7.3,17.8,13.8s6.4,14.3,6.4,23.4
	c0,7.8-1.7,14.7-5.1,20.7c-3.4,5.9-7.8,10.4-13.2,13.2c-5.4,2.8-13,4.2-22.7,4.2H403L403,117.4z M410.5,110h9
	c10.8,0,18.2-0.7,22.4-2c5.9-1.9,10.5-5.4,13.8-10.3c3.4-5,5-11.1,5-18.2c0-7.5-1.8-14-5.5-19.3c-3.6-5.4-8.7-9-15.2-11
	c-4.9-1.5-12.9-2.2-24.1-2.2h-5.5v63H410.5z"/>
<path class="st5" d="M293.5,165.3l-3.5,3.3c-2.5-2.4-5.2-4.3-8.2-5.6c-3-1.3-5.9-1.9-8.7-1.9c-3.5,0-6.8,0.9-10,2.6s-5.6,4-7.4,7
	c-1.7,2.9-2.6,6-2.6,9.3c0,3.4,0.9,6.5,2.7,9.6c1.8,3,4.3,5.4,7.5,7.1s6.7,2.6,10.4,2.6c4.6,0,8.5-1.3,11.7-3.9s5.1-5.9,5.6-10
	h-14.2V181H296c0,6.9-2.1,12.3-6.1,16.4c-4.1,4-9.5,6.1-16.3,6.1c-8.3,0-14.8-2.8-19.6-8.4c-3.7-4.3-5.6-9.3-5.6-15
	c0-4.2,1.1-8.1,3.2-11.8c2.1-3.6,5-6.5,8.7-8.5s7.9-3.1,12.6-3.1c3.8,0,7.4,0.7,10.7,2C287.1,160.1,290.3,162.3,293.5,165.3z"/>
<path class="st5" d="M305.8,157.8h8.9c5,0,8.3,0.2,10.1,0.6c2.7,0.6,4.8,1.9,6.5,3.9s2.5,4.4,2.5,7.3c0,2.4-0.6,4.6-1.7,6.4
	s-2.8,3.2-4.9,4.2c-2.1,0.9-5.1,1.4-8.8,1.4l16,20.7h-5.5l-16-20.7h-2.6v20.7h-4.5V157.8L305.8,157.8z M310.3,162.1v15.1l7.7,0.1
	c3,0,5.2-0.3,6.6-0.8c1.4-0.6,2.5-1.5,3.4-2.7c0.8-1.2,1.2-2.6,1.2-4.2c0-1.5-0.4-2.9-1.2-4.1c-0.8-1.2-1.9-2.1-3.2-2.6
	c-1.3-0.5-3.5-0.8-6.6-0.8H310.3z"/>
<path class="st5" d="M365.5,156.7c6.7,0,12.4,2.3,16.9,6.8s6.8,10,6.8,16.6c0,6.5-2.3,12.1-6.8,16.6s-10.1,6.8-16.6,6.8
	c-6.6,0-12.2-2.3-16.7-6.8s-6.8-10-6.8-16.4c0-4.3,1-8.2,3.1-11.9c2.1-3.7,4.9-6.5,8.5-8.6S361.4,156.7,365.5,156.7L365.5,156.7z
	 M365.7,161c-3.3,0-6.4,0.9-9.4,2.6c-2.9,1.7-5.3,4-6.9,6.9c-1.7,2.9-2.5,6.2-2.5,9.7c0,5.3,1.8,9.8,5.5,13.4
	c3.7,3.7,8.1,5.5,13.3,5.5c3.5,0,6.7-0.8,9.6-2.5s5.2-4,6.9-6.9c1.6-2.9,2.5-6.1,2.5-9.7c0-3.5-0.8-6.7-2.5-9.6
	c-1.6-2.9-4-5.1-7-6.9C372.3,161.9,369.1,161,365.7,161z"/>
<path class="st5" d="M399.5,157.8h4.5v26.9c0,3.2,0.1,5.2,0.2,6c0.2,1.8,0.7,3.2,1.5,4.4c0.8,1.2,2,2.2,3.7,3s3.4,1.2,5.1,1.2
	c1.5,0,2.9-0.3,4.2-0.9c1.3-0.6,2.5-1.5,3.4-2.6s1.6-2.5,2-4c0.3-1.1,0.5-3.5,0.5-7v-26.9h4.5v26.9c0,4-0.4,7.2-1.2,9.6
	c-0.8,2.5-2.3,4.6-4.7,6.4c-2.3,1.8-5.2,2.7-8.5,2.7c-3.6,0-6.7-0.9-9.2-2.6c-2.6-1.7-4.3-4-5.2-6.8c-0.5-1.7-0.8-4.9-0.8-9.4V157.8
	z"/>
<path class="st5" d="M440.9,157.8h8.9c5.1,0,8.5,0.2,10.3,0.7c2.5,0.6,4.6,1.9,6.2,3.9c1.6,1.9,2.4,4.4,2.4,7.3c0,3-0.8,5.4-2.4,7.3
	s-3.7,3.2-6.5,3.9c-2,0.5-5.8,0.7-11.3,0.7h-3.2v20.7h-4.5v-44.5H440.9z M445.4,162.1v15.1l7.6,0.1c3.1,0,5.3-0.3,6.7-0.8
	c1.4-0.6,2.5-1.4,3.3-2.7c0.8-1.2,1.2-2.6,1.2-4.2c0-1.5-0.4-2.9-1.2-4.1s-1.9-2.1-3.2-2.6s-3.5-0.8-6.5-0.8H445.4z"/>
<path class="st6" d="M9.3,266.6h2.9l-0.4,3.3c2.5-2.6,5.4-3.9,8.7-3.9c3,0,5.4,1,7.4,2.9c1.9,1.9,2.9,4.4,2.9,7.4
	c0,3.5-1.2,6.5-3.7,9s-5.4,3.7-8.8,3.7c-1.8,0-3.4-0.4-4.8-1.1c-1.4-0.8-2.6-2-3.5-3.6l-1.6,12.2H5.5L9.3,266.6L9.3,266.6z
	 M20.1,268.6c-1.8,0-3.4,0.4-4.9,1.3s-2.7,2.1-3.5,3.7c-0.9,1.6-1.3,3.3-1.3,5.2c0,2.3,0.7,4.1,2.2,5.5c1.4,1.4,3.3,2.1,5.6,2.1
	c2.7,0,5-1,6.9-2.9s2.9-4.3,2.9-7.2c0-2.3-0.7-4.2-2.1-5.6C24.2,269.3,22.4,268.6,20.1,268.6z"/>
<path class="st6" d="M41.2,266.6H44l-0.4,2.7c0.8-1,1.7-1.8,2.7-2.4c1.1-0.6,2.2-0.9,3.3-0.9c0.8,0,1.6,0.2,2.5,0.6l-1.3,2.6
	c-0.7-0.3-1.3-0.4-1.8-0.4c-1,0-2,0.3-2.9,1c-1,0.7-1.7,1.7-2.4,3c-0.6,1.3-1.1,3.5-1.5,6.4l-1.3,9.3h-2.7L41.2,266.6z"/>
<path class="st6" d="M69.9,266c1.9,0,3.6,0.4,5.1,1.3c1.6,0.9,2.8,2.1,3.7,3.7s1.3,3.4,1.3,5.4c0,2.3-0.6,4.4-1.7,6.4
	s-2.6,3.5-4.5,4.5c-1.9,1.1-4,1.6-6.4,1.6c-3,0-5.4-1-7.3-2.9s-2.9-4.4-2.9-7.3c0-2.3,0.6-4.5,1.7-6.4c1.1-2,2.6-3.5,4.6-4.6
	S67.6,266,69.9,266L69.9,266z M69.9,268.7c-1.7,0-3.4,0.4-4.9,1.3s-2.7,2.1-3.5,3.6s-1.2,3.2-1.2,5c0,2.3,0.7,4.2,2.1,5.6
	s3.3,2.2,5.5,2.2c1.8,0,3.4-0.4,4.8-1.3c1.4-0.8,2.6-2,3.4-3.6s1.3-3.3,1.3-5.1c0-1.5-0.3-2.9-0.9-4c-0.6-1.2-1.5-2.1-2.7-2.7
	C72.5,269,71.2,268.7,69.9,268.7z"/>
<polygon class="st6" points="89.6,266.6 92.5,266.6 98,282.6 107.3,266.6 110.3,266.6 97.7,288.5 97.2,288.5 "/>
<path class="st6" d="M122.1,257.6c0.6,0,1.1,0.2,1.6,0.7c0.4,0.4,0.7,1,0.7,1.6s-0.2,1.2-0.7,1.6c-0.4,0.4-1,0.7-1.6,0.7
	s-1.2-0.2-1.6-0.7c-0.4-0.4-0.7-1-0.7-1.6s0.2-1.1,0.7-1.6C121,257.8,121.5,257.6,122.1,257.6L122.1,257.6z M119.9,266.6h2.7
	l-2.9,21.9h-2.8L119.9,266.6z"/>
<path class="st6" d="M134,266.6h2.7l-0.5,3.4c2.2-2.6,4.8-4,7.8-4c2.3,0,4.1,0.7,5.5,2.1s2.1,3.2,2.1,5.6c0,0.9-0.2,2.5-0.5,4.7
	l-1.4,10.1H147l1.4-10.1c0.3-2.1,0.4-3.7,0.4-4.7c0-1.5-0.5-2.8-1.4-3.7c-0.9-0.9-2.2-1.4-3.7-1.4s-2.9,0.4-4.1,1.1
	c-1.3,0.8-2.3,1.8-3,3.1c-0.7,1.3-1.2,3.4-1.6,6.2l-1.3,9.5H131L134,266.6z"/>
<path class="st6" d="M183,266.6h2.8l-2.5,18.5c-0.4,3-0.9,5.1-1.5,6.3c-0.8,1.6-2.1,3-3.9,4.1c-1.8,1.1-4,1.6-6.5,1.6
	s-4.6-0.5-6.3-1.5s-3.1-2.5-4-4.4l2.5-0.9c1.5,2.8,4.1,4.2,7.8,4.2c1.9,0,3.6-0.4,5-1.2c1.4-0.8,2.4-1.8,3-3
	c0.4-0.7,0.7-2.3,1.1-4.8l0.1-0.9c-2.4,2.6-5.3,3.9-8.7,3.9c-3,0-5.4-0.9-7.3-2.8c-1.8-1.8-2.8-4.2-2.8-7.2c0-2.2,0.6-4.2,1.7-6.1
	c1.1-1.9,2.7-3.5,4.6-4.6c2-1.2,4-1.7,6-1.7c1.7,0,3.2,0.4,4.6,1.1c1.4,0.8,2.6,1.9,3.7,3.6L183,266.6L183,266.6z M174.7,268.7
	c-1.8,0-3.5,0.4-5.1,1.3s-2.8,2.1-3.7,3.6s-1.3,3.2-1.3,5c0,2.1,0.7,3.9,2,5.2c1.4,1.3,3.2,2,5.5,2c2.8,0,5.1-0.9,6.9-2.7
	c1.8-1.8,2.8-4.1,2.8-6.9c0-2.4-0.7-4.3-2.2-5.5C178.1,269.3,176.5,268.7,174.7,268.7z"/>
<polygon class="st6" points="206.5,266.6 209.3,266.6 213.8,282 222,266.6 222.5,266.6 227.5,282.2 235.5,266.6 238.6,266.6 
	227.3,288.5 226.6,288.5 221.6,273 213.4,288.5 212.8,288.5 "/>
<path class="st6" d="M249.6,258.1h2.7l-1.6,11.9c2.3-2.6,4.9-4,7.8-4c2.2,0,4,0.7,5.5,2.1c1.4,1.4,2.1,3.2,2.1,5.4
	c0,1.2-0.1,2.9-0.4,4.9l-1.4,10.1h-2.7l1.4-10.1c0.3-2,0.4-3.6,0.4-4.8c0-1.5-0.5-2.7-1.4-3.6s-2.2-1.4-3.7-1.4
	c-1.4,0-2.8,0.4-4.1,1.1c-1.3,0.8-2.3,1.8-2.9,3.1c-0.7,1.3-1.2,3.4-1.6,6.2l-1.3,9.5h-2.7L249.6,258.1z"/>
<path class="st6" d="M297.6,288.5h-2.8l0.4-3.3c-2.5,2.6-5.4,3.8-8.7,3.8c-3,0-5.4-1-7.3-2.9s-2.9-4.4-2.9-7.4c0-3.5,1.2-6.5,3.7-9
	s5.4-3.7,8.8-3.7c1.8,0,3.4,0.4,4.8,1.1c1.4,0.8,2.5,1.9,3.5,3.6l0.6-4.2h2.9L297.6,288.5L297.6,288.5z M286.8,286.5
	c1.8,0,3.4-0.4,4.9-1.3s2.7-2.1,3.5-3.7c0.9-1.6,1.3-3.3,1.3-5.2c0-2.3-0.7-4.1-2.1-5.5s-3.3-2.1-5.6-2.1c-2.7,0-5,1-6.9,2.9
	s-2.9,4.3-2.9,7.2c0,2.3,0.7,4.2,2.1,5.6C282.7,285.7,284.5,286.5,286.8,286.5z"/>
<polygon class="st6" points="315.8,258.4 318.5,258.4 317.4,266.6 321.8,266.6 321.5,269 317.1,269 314.5,288.5 311.7,288.5 
	314.3,269 310.6,269 310.9,266.6 314.7,266.6 "/>
<polygon class="st6" points="340.6,266.6 343.5,266.6 347.9,282 356.1,266.6 356.6,266.6 361.6,282.2 369.7,266.6 372.7,266.6 
	361.5,288.5 360.8,288.5 355.8,273 347.6,288.5 347,288.5 "/>
<path class="st6" d="M392.5,266c1.9,0,3.6,0.4,5.1,1.3c1.6,0.9,2.8,2.1,3.7,3.7c0.9,1.6,1.3,3.4,1.3,5.4c0,2.3-0.6,4.4-1.7,6.4
	s-2.6,3.5-4.5,4.5c-1.9,1.1-4,1.6-6.4,1.6c-2.9,0-5.4-1-7.3-2.9s-2.9-4.4-2.9-7.3c0-2.3,0.6-4.5,1.7-6.4c1.1-2,2.6-3.5,4.6-4.6
	C388.1,266.6,390.2,266,392.5,266L392.5,266z M392.4,268.7c-1.7,0-3.4,0.4-4.9,1.3s-2.7,2.1-3.5,3.6s-1.2,3.2-1.2,5
	c0,2.3,0.7,4.2,2.1,5.6s3.3,2.2,5.5,2.2c1.8,0,3.4-0.4,4.8-1.3c1.4-0.8,2.6-2,3.4-3.6s1.3-3.3,1.3-5.1c0-1.5-0.3-2.9-0.9-4
	c-0.6-1.2-1.5-2.1-2.7-2.7C395.1,269,393.8,268.7,392.4,268.7z"/>
<path class="st6" d="M413.7,266.6h2.8l-0.4,2.7c0.8-1,1.7-1.8,2.7-2.4c1.1-0.6,2.2-0.9,3.3-0.9c0.8,0,1.6,0.2,2.5,0.6l-1.3,2.6
	c-0.7-0.3-1.3-0.4-1.8-0.4c-1,0-2,0.3-2.9,1c-1,0.7-1.7,1.7-2.4,3c-0.6,1.3-1.1,3.5-1.5,6.4l-1.3,9.3h-2.7L413.7,266.6z"/>
<polygon class="st6" points="433.7,258.1 436.5,258.1 434.3,274.6 444.8,266.6 449.3,266.6 436.5,276.3 447.7,288.5 443.9,288.5 
	433.9,277.6 432.4,288.5 429.6,288.5 "/>
<path class="st6" d="M468.8,269.1l-1.5,2.3c-1.2-1.8-2.7-2.6-4.4-2.6c-1,0-1.8,0.3-2.5,0.9s-1,1.3-1,2.1c0,0.6,0.2,1.2,0.6,1.7
	s1.3,1.3,2.8,2.2c2.1,1.3,3.5,2.5,4.2,3.5s1,2.2,1,3.5c0,1.8-0.6,3.4-1.9,4.6s-3,1.8-5,1.8c-2.7,0-5-1.2-6.9-3.6l1.7-2
	c1.6,2,3.4,3,5.3,3c1.1,0,2-0.4,2.8-1.1c0.8-0.8,1.2-1.7,1.2-2.6c0-0.8-0.3-1.6-0.9-2.4c-0.4-0.5-1.4-1.3-3.1-2.4
	c-1.8-1.2-3.1-2.3-3.6-3.1c-0.6-0.8-0.9-1.7-0.9-2.8c0-1.6,0.6-3,1.8-4.2c1.2-1.1,2.8-1.7,4.6-1.7c1.1,0,2.1,0.2,3,0.7
	C467,267.1,467.9,267.9,468.8,269.1z"/>
</svg>
