<?xml version="1.0" encoding="utf-8"?>
<!-- Generator: Adobe Illustrator 22.1.0, SVG Export Plug-In . SVG Version: 6.00 Build 0)  -->
<svg version="1.1" id="Layer_1" xmlns="http://www.w3.org/2000/svg" xmlns:xlink="http://www.w3.org/1999/xlink" x="0px" y="0px"
	 viewBox="0 0 465.9 220.2" style="enable-background:new 0 0 465.9 220.2;" xml:space="preserve">
<style type="text/css">
	.st0{fill:#C7932C;}
	.st1{fill:#50082A;}
	.st2{fill:#A8C96F;}
	.st3{fill:#0E5365;}
	.st4{fill:#FFFFFF;}
	.st5{fill:#494941;}
</style>
<g>
	<rect class="st0" width="108.2" height="108.2"/>
	<rect x="112.1" class="st1" width="108.2" height="108.2"/>
</g>
<rect x="112.1" y="112" class="st2" width="108.2" height="108.2"/>
<rect y="112" class="st3" width="108.2" height="108.2"/>
<path class="st4" d="M109.7,6.5c47.8,0,87.1,30.6,87.1,81.3c0,50.6-39.3,81.3-87.1,81.3s-87.1-30.6-87.1-81.3
	C22.6,37.1,61.9,6.5,109.7,6.5L109.7,6.5z M213.1,177.4L213.1,177.4c-17.4,22.9-27.3,36.3-58.2,36.3c-34.9,0-59.4-33.9-94.4-33.9
	c-7.5,0-14.8,2.8-21.4,6.4l-3.3-3.8c10.8-6.8,20.7-9.7,33.4-9.7c34.6,0,70.4,24.5,97.5,24.5c20.2,0,30.1-8.5,42.4-23.6L213.1,177.4
	L213.1,177.4z M109.7,160.5L109.7,160.5c39.1,0,62.2-34.4,62.2-72.8s-23.1-72.8-62.2-72.8S47.5,49.3,47.5,87.7
	S70.6,160.5,109.7,160.5z"/>
<path class="st5" d="M312.2,98.6l11.6,14.7h-9.7l-8-10.1c-6.3,3.9-13.5,5.8-21.5,5.8c-11.6,0-21.4-4-29.4-11.9
	c-8-7.9-12-17.5-12-28.8c0-7.5,1.8-14.5,5.5-20.9c3.6-6.4,8.6-11.4,14.9-15.1c6.3-3.6,13.2-5.4,20.7-5.4c11.6,0,21.4,4,29.3,11.9
	c8,7.9,11.9,17.6,11.9,29.2c0,6-1.1,11.5-3.3,16.5C320.3,89.6,316.9,94.2,312.2,98.6L312.2,98.6z M307.4,92.5
	c6.8-6.7,10.2-14.8,10.2-24.5c0-6.2-1.5-11.8-4.3-16.8c-2.9-5-7-9-12.2-12c-5.3-3-10.8-4.5-16.6-4.5c-5.9,0-11.4,1.5-16.6,4.5
	s-9.2,7.1-12.2,12.2c-2.9,5.1-4.4,10.8-4.4,17.1c0,9.3,3.2,17.1,9.6,23.5c6.4,6.4,14.2,9.6,23.3,9.6c6.2,0,11.9-1.5,16.9-4.4
	L283.5,75h9.7L307.4,92.5z"/>
<polygon class="st5" points="338.9,29 383.7,29 383.7,36.6 346.8,36.6 346.8,61.1 383.3,61.1 383.3,68.7 346.8,68.7 346.8,99.5 
	383.3,99.5 383.3,107.1 338.9,107.1 "/>
<path class="st5" d="M397.8,107.1V29H414c11.7,0,20.2,0.9,25.4,2.8c7.6,2.7,13.5,7.3,17.8,13.8s6.4,14.3,6.4,23.4
	c0,7.8-1.7,14.7-5.1,20.7c-3.4,5.9-7.8,10.4-13.2,13.2c-5.4,2.8-13,4.2-22.7,4.2L397.8,107.1L397.8,107.1z M405.3,99.7h9
	c10.8,0,18.2-0.7,22.4-2c5.9-1.9,10.5-5.4,13.8-10.3c3.4-5,5-11.1,5-18.2c0-7.5-1.8-14-5.5-19.3c-3.6-5.4-8.7-9-15.2-11
	c-4.9-1.5-12.9-2.2-24.1-2.2h-5.5v63H405.3z"/>
<path class="st5" d="M288.3,155l-3.5,3.3c-2.5-2.4-5.2-4.3-8.2-5.6s-5.9-1.9-8.7-1.9c-3.5,0-6.8,0.9-10,2.6c-3.2,1.7-5.6,4-7.4,7
	c-1.7,2.9-2.6,6-2.6,9.3c0,3.4,0.9,6.5,2.7,9.6c1.8,3,4.3,5.4,7.5,7.1c3.2,1.7,6.7,2.6,10.4,2.6c4.6,0,8.5-1.3,11.7-3.9
	s5.1-5.9,5.6-10h-14.2v-4.4h19.2c0,6.9-2.1,12.3-6.1,16.4c-4.1,4-9.5,6.1-16.3,6.1c-8.3,0-14.8-2.8-19.6-8.4
	c-3.7-4.3-5.6-9.3-5.6-15c0-4.2,1.1-8.1,3.2-11.8c2.1-3.6,5-6.5,8.7-8.5c3.7-2,7.9-3.1,12.6-3.1c3.8,0,7.4,0.7,10.7,2
	C281.9,149.8,285.1,152,288.3,155z"/>
<path class="st5" d="M300.6,147.5h8.9c5,0,8.3,0.2,10.1,0.6c2.7,0.6,4.8,1.9,6.5,3.9s2.5,4.4,2.5,7.3c0,2.4-0.6,4.6-1.7,6.4
	s-2.8,3.2-4.9,4.2c-2.1,0.9-5.1,1.4-8.8,1.4l16,20.7h-5.5l-16-20.7h-2.6V192h-4.5V147.5L300.6,147.5z M305.1,151.8v15.1l7.7,0.1
	c3,0,5.2-0.3,6.6-0.8c1.4-0.6,2.5-1.5,3.4-2.7c0.8-1.2,1.2-2.6,1.2-4.2c0-1.5-0.4-2.9-1.2-4.1c-0.8-1.2-1.9-2.1-3.2-2.6
	c-1.3-0.5-3.5-0.8-6.6-0.8H305.1z"/>
<path class="st5" d="M360.3,146.4c6.7,0,12.4,2.3,16.9,6.8s6.8,10,6.8,16.6c0,6.5-2.3,12.1-6.8,16.6s-10.1,6.8-16.6,6.8
	c-6.6,0-12.2-2.3-16.7-6.8s-6.8-10-6.8-16.4c0-4.3,1-8.2,3.1-11.9s4.9-6.5,8.5-8.6S356.2,146.4,360.3,146.4L360.3,146.4z
	 M360.5,150.7c-3.3,0-6.4,0.9-9.4,2.6c-2.9,1.7-5.3,4-6.9,6.9c-1.7,2.9-2.5,6.2-2.5,9.7c0,5.3,1.8,9.8,5.5,13.4
	c3.7,3.7,8.1,5.5,13.3,5.5c3.5,0,6.7-0.8,9.6-2.5s5.2-4,6.9-6.9c1.6-2.9,2.5-6.1,2.5-9.7c0-3.5-0.8-6.7-2.5-9.6
	c-1.6-2.9-4-5.1-7-6.9C367.1,151.6,363.9,150.7,360.5,150.7z"/>
<path class="st5" d="M394.3,147.5h4.5v26.9c0,3.2,0.1,5.2,0.2,6c0.2,1.8,0.7,3.2,1.5,4.4s2,2.2,3.7,3s3.4,1.2,5.1,1.2
	c1.5,0,2.9-0.3,4.2-0.9c1.3-0.6,2.5-1.5,3.4-2.6s1.6-2.5,2-4c0.3-1.1,0.5-3.5,0.5-7v-26.9h4.5v26.9c0,4-0.4,7.2-1.2,9.6
	c-0.8,2.5-2.3,4.6-4.7,6.4c-2.3,1.8-5.2,2.7-8.5,2.7c-3.6,0-6.7-0.9-9.2-2.6c-2.6-1.7-4.3-4-5.2-6.8c-0.5-1.7-0.8-4.9-0.8-9.4V147.5
	z"/>
<path class="st5" d="M435.7,147.5h8.9c5.1,0,8.5,0.2,10.3,0.7c2.5,0.6,4.6,1.9,6.2,3.9c1.6,1.9,2.4,4.4,2.4,7.3c0,3-0.8,5.4-2.4,7.3
	s-3.7,3.2-6.5,3.9c-2,0.5-5.8,0.7-11.3,0.7h-3.2V192h-4.5v-44.5L435.7,147.5L435.7,147.5z M440.2,151.8v15.1l7.6,0.1
	c3.1,0,5.3-0.3,6.7-0.8c1.4-0.6,2.5-1.4,3.3-2.7c0.8-1.2,1.2-2.6,1.2-4.2c0-1.5-0.4-2.9-1.2-4.1s-1.9-2.1-3.2-2.6s-3.5-0.8-6.5-0.8
	H440.2z"/>
</svg>
